<?xml version="1.0" encoding="UTF-8"?>
<svg id="Layer_1" data-name="Layer 1" xmlns="http://www.w3.org/2000/svg" viewBox="0 0 530.06 455.39">
  <defs>
    <style>
      .cls-1 {
        fill: #63ab45;
      }
    </style>
  </defs>
  <path class="cls-1" d="M366.04,173.92c-14.01,20.91-88.46,54.21-113.95,65.27-24.91,10.81-50.76,20.46-76.59,28.88,2.26,11.61,14.5,8.66,24.53,12.4,41.17,15.35,84.62,33,125.2,50.03,41.34,17.35,82.43,35.73,122.83,55.18,3.41,3.73-.51,5.85-2.75,8.4-17.71,20.26-83.51,48-110.3,53.98C176.13,483.52-12.59,388.22.66,208.17c63.53-20.35,127.83-41.17,193.38-54.42,39.58-8,87.74-16.95,127.93-14.4,20.4,1.3,63.61,5.41,44.07,34.56Z"/>
  <path class="cls-1" d="M431.79,50.09c85.05,56.73,127.33,173.76,75.92,267.35l-214.45-53.54c38.17-14.88,82.14-31.17,111-61.47,35.49-37.26,6.34-77.94-35.14-91.06-53.2-16.83-176.9-6.87-236.03-2.13-31.96,2.56-71.77,12.07-102.15,12.99-2.76.08-8.52.38-8.7-3.42-.12-2.43,25.71-33.66,30.2-38.19C148.71-16.67,319.6-24.74,431.79,50.09Z"/>
</svg>